<?xml version="1.0" encoding="UTF-8" standalone="no"?>
<svg
   viewBox="0 0 48 48"
   version="1.1"
   id="svg50"
   sodipodi:docname="vivido.svg"
   xml:space="preserve"
   inkscape:version="1.2.2 (b0a8486541, 2022-12-01)"
   xmlns:inkscape="http://www.inkscape.org/namespaces/inkscape"
   xmlns:sodipodi="http://sodipodi.sourceforge.net/DTD/sodipodi-0.dtd"
   xmlns="http://www.w3.org/2000/svg"
   xmlns:svg="http://www.w3.org/2000/svg"><sodipodi:namedview
     id="namedview52"
     pagecolor="#505050"
     bordercolor="#000000"
     borderopacity="0.25"
     inkscape:showpageshadow="2"
     inkscape:pageopacity="0"
     inkscape:pagecheckerboard="0"
     inkscape:deskcolor="#d1d1d1"
     showgrid="false"
     inkscape:zoom="11.313709"
     inkscape:cx="13.788582"
     inkscape:cy="15.291183"
     inkscape:window-width="1426"
     inkscape:window-height="990"
     inkscape:window-x="1945"
     inkscape:window-y="0"
     inkscape:window-maximized="0"
     inkscape:current-layer="g38448" /><defs
     id="defs46"><linearGradient
       id="linearGradient1323"
       inkscape:swatch="solid"><stop
         style="stop-color:#000000;stop-opacity:1;"
         offset="0"
         id="stop1321" /></linearGradient><style
       id="style44">.a{fill:none;stroke:#fff;stroke-linecap:round;stroke-linejoin:round;}</style><style
       id="style21506">.a{fill:none;stroke:#fff;stroke-linecap:round;stroke-linejoin:round;}</style></defs><style
     type="text/css"
     id="style5848">
	.st0{display:none;}
	.st1{display:inline;}
	.st2{fill:none;stroke:#FFFF00;stroke-width:0.25;stroke-miterlimit:10;}
	.st3{fill:none;stroke:#FFFF00;stroke-width:0.1;stroke-miterlimit:10;}
	.st4{fill:#FFFF00;}
	.st5{fill:none;stroke:#FFFFFF;stroke-linecap:round;stroke-linejoin:round;stroke-miterlimit:10;}
	.st6{fill:#FFFFFF;}
	.st7{fill:none;stroke:#FFFFFF;stroke-linecap:round;stroke-linejoin:round;}
</style><style
     type="text/css"
     id="style21588">
	.st0{display:none;}
	.st1{display:inline;}
	.st2{fill:none;stroke:#FFFF00;stroke-width:0.25;stroke-miterlimit:10;}
	.st3{fill:none;stroke:#FFFF00;stroke-width:0.1;stroke-miterlimit:10;}
	.st4{fill:#FFFF00;}
	.st5{fill:none;stroke:#FFFFFF;stroke-linecap:round;stroke-linejoin:round;stroke-miterlimit:10;}
	.st6{fill:#FFFFFF;}
	.st7{fill:none;stroke:#FFFFFF;stroke-linecap:round;stroke-linejoin:round;}
</style><g
     id="g38448"
     transform="translate(0.31562028,-4.7164795)"><path
       style="fill:#000000;fill-opacity:0;stroke:#ffffff;stroke-width:1;stroke-linecap:round;stroke-linejoin:round;stroke-opacity:1;paint-order:stroke fill markers;stroke-dasharray:none"
       d="m 23.9064,46.739725 c 1.961336,-0.729258 19.418814,-10.606143 18.638406,-28.655038 -0.04819,-1.11456 0.0029,-0.644361 -0.01309,-0.726491 -2.126257,-10.9550888 -8.786423,-5.710482 -9.119615,-4.852155 -2.304866,4.671526 1.48613,6.307546 3.678805,7.023175 -1.120636,9.540693 -5.902339,14.517965 -10.444723,18.805646 -0.79441,0.473785 -2.019571,0.01215 -2.109525,-1.157667 0.995345,-4.984971 1.515606,-11.244436 1.337749,-13.943446 C 24.888058,14.847457 17.774868,13.580302 15.58404,13.586531 7.2974607,14.169684 4.9696995,20.115446 5.0364142,23.825445 c 0.4131909,7.804525 5.8718438,9.586877 6.8430948,9.621492 1.231897,0.156775 2.300197,-0.890321 2.624042,-2.315331 0.346141,-1.555847 -0.784467,-2.367079 -1.929443,-3.009933 -0.976987,-0.563687 -2.7708985,-2.452456 -2.135252,-4.733569 0.956475,-4.087351 3.360272,-4.783742 5.531072,-4.553487 2.194816,0.41228 4.635926,1.321827 4.785022,5.968413 -0.303697,6.236753 -1.405391,12.07451 -2.109526,18.111044 0.01504,1.493281 0.45783,2.639018 1.569281,3.241466 1.122249,0.577911 2.238168,1.075481 3.691689,0.584185 z"
       id="path23919"
       sodipodi:nodetypes="cssccccccccccccccccc" /></g><style
     type="text/css"
     id="style9524">
	.st0{display:none;}
	.st1{display:inline;}
	.st2{fill:none;stroke:#FFFF00;stroke-width:0.25;stroke-miterlimit:10;}
	.st3{fill:none;stroke:#FFFF00;stroke-width:0.1;stroke-miterlimit:10;}
	.st4{fill:#FFFF00;}
	.st5{fill:none;stroke:#FFFFFF;stroke-linecap:round;stroke-linejoin:round;stroke-miterlimit:10;}
	.st6{fill:#FFFFFF;}
	.st7{fill:none;stroke:#FFFFFF;stroke-linecap:round;stroke-linejoin:round;}
</style></svg>
